<?xml version="1.0" standalone="no"?>
<!DOCTYPE svg PUBLIC "-//W3C//DTD SVG 20010904//EN"
 "http://www.w3.org/TR/2001/REC-SVG-20010904/DTD/svg10.dtd">
<svg version="1.0" xmlns="http://www.w3.org/2000/svg"
 width="474.000000pt" height="474.000000pt" viewBox="0 0 474.000000 474.000000"
 preserveAspectRatio="xMidYMid meet">
<metadata>
Created by potrace 1.11, written by Peter Selinger 2001-2013
</metadata>
<g transform="translate(0.000000,474.000000) scale(0.100000,-0.100000)"
fill="#000000" stroke="none">
<path d="M2125 4729 c-391 -48 -744 -176 -1055 -384 -586 -392 -951 -984
-1044 -1695 -14 -105 -15 -468 -2 -555 4 -22 9 -60 13 -85 3 -25 7 -49 9 -55
1 -5 5 -26 8 -45 11 -60 56 -232 78 -295 230 -671 727 -1192 1384 -1453 286
-114 559 -162 894 -157 113 2 219 6 235 9 17 3 48 7 70 10 160 21 458 102 550
150 17 9 34 16 38 16 4 0 47 19 95 43 265 132 449 263 647 462 125 126 136
139 223 255 249 333 402 715 456 1140 13 95 15 517 3 560 -2 8 -7 38 -11 65
-75 503 -312 974 -665 1325 -150 148 -235 218 -396 323 -275 179 -623 309
-940 353 -27 3 -59 9 -70 11 -39 9 -451 10 -520 2z m500 -142 c11 -3 45 -8 75
-12 452 -60 906 -289 1245 -630 367 -368 586 -825 642 -1340 10 -90 10 -389 0
-480 -45 -408 -207 -803 -466 -1135 -62 -80 -223 -249 -301 -315 -171 -147
-410 -292 -615 -373 -88 -35 -242 -86 -292 -97 -248 -53 -346 -63 -573 -59
-107 1 -206 5 -220 8 -14 2 -56 9 -95 15 -38 6 -81 13 -95 16 -14 3 -36 8 -50
11 -70 14 -271 76 -335 104 -300 130 -526 281 -735 490 -262 261 -441 552
-552 895 -77 241 -103 409 -103 685 0 206 9 305 45 468 7 30 13 59 14 65 14
69 69 234 113 337 233 543 640 947 1203 1193 152 66 433 138 600 153 41 3 77
8 79 10 6 5 391 -3 416 -9z"/>
<path d="M1930 3740 c-239 -241 -436 -442 -437 -447 -2 -5 7 -19 20 -31 l23
-22 385 388 c212 213 393 393 402 401 16 12 17 -19 17 -437 l0 -450 -429 -430
-429 -431 22 -20 c12 -12 26 -21 30 -21 4 0 187 180 406 400 l400 400 0 -452
0 -453 -426 -427 -427 -427 17 -26 c9 -14 21 -25 26 -25 5 0 189 181 409 402
l401 402 0 -715 0 -716 28 3 c15 1 30 2 35 3 4 1 7 321 7 713 l0 712 404 -406
404 -406 21 22 c12 12 21 26 21 30 0 5 -191 200 -425 435 l-425 426 0 453 0
454 399 -401 c219 -221 402 -401 406 -401 5 0 19 9 31 21 l22 21 -429 430
-429 431 0 449 c0 276 4 447 9 443 5 -3 187 -183 403 -400 l393 -394 22 21
c13 12 23 24 23 28 0 10 -878 890 -887 889 -5 0 -204 -198 -443 -439z"/>
</g>
</svg>
