<svg xmlns="http://www.w3.org/2000/svg" viewBox="0 0 512 512" width="60" height="60"><g fill="#85b35b"><path d="M501.333 244.947c-.747.107-1.387.213-2.027.427h-61.973v-96c0-5.867-4.8-10.667-10.667-10.667h-53.333c-5.867 0-10.667 4.8-10.667 10.667v96H288v-96c0-5.867-4.8-10.667-10.667-10.667H224c-5.867 0-10.667 4.8-10.667 10.667v96h-64v-96c0-5.867-4.8-10.667-10.667-10.667H85.333c-5.867 0-10.667 4.8-10.667 10.667v96H12.693c-.64-.213-1.387-.32-2.027-.427C4.8 244.947 0 249.747 0 255.613v200.32c0 25.493 20.267 45.44 46.293 45.44h417.92C490.56 501.373 512 481 512 455.933v-200.32c0-5.866-4.8-10.666-10.667-10.666zM384 160.04h32v85.333h-32V160.04zm-149.333 0h32v85.333h-32V160.04zM96 160.04h32v85.333H96V160.04zm394.667 295.893c0 13.547-11.627 24.107-26.453 24.107H46.293c-14.4 0-24.96-10.133-24.96-24V342.973c14.72 14.72 34.88 24.427 52.48 24.427 21.653 0 42.453-14.4 54.4-34.24 14.187 23.36 40.533 39.68 63.36 39.68s49.387-16.427 63.467-39.893c14.187 23.467 40.64 39.893 63.573 39.893s49.28-16.427 63.467-39.787C394.027 353 415.147 367.4 437.013 367.4c18.027 0 38.72-9.707 53.653-24.533v113.066zm0-151.893c-3.733 22.187-32.533 43.413-53.653 43.413-22.08 0-44.587-24.64-44.587-48.96 0-4.053-2.24-7.893-5.973-9.387-7.467-2.987-14.507 2.347-14.507 9.387 0 27.52-30.507 54.4-53.333 54.4s-53.227-26.773-53.227-54.293c0-5.333-4.053-9.92-9.387-10.347-6.08-.533-11.093 4.267-11.093 10.24 0 27.52-30.507 54.4-53.227 54.4-22.72 0-53.12-26.773-53.227-54.293 0-5.333-4.053-9.92-9.387-10.347-6.08-.533-11.093 4.267-11.093 10.24 0 24.213-22.187 48.96-44.053 48.96-20.693 0-48.853-21.44-52.48-44.053v-36.693h469.227v37.333zM400 117.373c26.453 0 48-20.053 48-44.8 0-22.613-34.133-53.333-41.067-59.307-4.053-3.52-9.92-3.52-13.973 0C386.133 19.24 352 49.96 352 72.573c0 24.747 21.547 44.8 48 44.8zm0-81.493c13.867 13.333 26.667 29.547 26.667 36.8 0 12.907-11.947 23.467-26.667 23.467-14.72 0-26.667-10.56-26.667-23.467 0-7.253 12.8-23.467 26.667-36.8zM250.667 117.373c26.453 0 48-20.053 48-44.8 0-22.613-34.133-53.333-40.96-59.307-4.053-3.52-9.92-3.52-13.973 0-6.933 5.973-41.067 36.693-41.067 59.307 0 24.747 21.546 44.8 48 44.8zm0-81.493c13.867 13.333 26.667 29.547 26.667 36.8 0 12.907-11.947 23.467-26.667 23.467-14.72 0-26.667-10.56-26.667-23.467 0-7.253 12.8-23.467 26.667-36.8zM112 117.373c26.453 0 48-20.053 48-44.8 0-22.613-34.133-53.333-40.96-59.307-4.053-3.52-9.92-3.52-13.973 0C98.133 19.24 64 49.96 64 72.573c0 24.747 21.547 44.8 48 44.8zm0-81.493c13.867 13.333 26.667 29.547 26.667 36.8 0 12.907-11.947 23.467-26.667 23.467-14.72 0-26.667-10.56-26.667-23.467 0-7.253 12.8-23.467 26.667-36.8z"/></g></svg>