<?xml version="1.0" encoding="iso-8859-1"?>
<!-- Generator: Adobe Illustrator 18.1.1, SVG Export Plug-In . SVG Version: 6.00 Build 0)  -->
<svg xmlns="http://www.w3.org/2000/svg" xmlns:xlink="http://www.w3.org/1999/xlink" version="1.1" id="Capa_1" x="0px" y="0px" viewBox="0 0 24.855 24.855" style="enable-background:new 0 0 24.855 24.855;" xml:space="preserve" width="512px" height="512px">
<g>
	<path d="M24.489,0.199c-0.297-0.231-0.701-0.264-1.031-0.085L0.496,12.552   c-0.336,0.182-0.53,0.549-0.491,0.93c0.039,0.38,0.304,0.7,0.67,0.81l6.117,1.835c0.23,1.823,0.773,6.113,0.877,6.946   c0.119,0.949,0.777,1.104,1.419,0.23c0.428-0.584,2.891-4.073,2.962-4.173l5.448,5.448c0.18,0.18,0.422,0.277,0.67,0.277   c0.084,0,0.169-0.011,0.253-0.035c0.329-0.092,0.583-0.352,0.665-0.683l5.74-22.961C24.918,0.813,24.786,0.43,24.489,0.199z    M17.655,22.056l-5.421-5.421l7.847-10.903l-12.23,8.736l-4.449-1.335L22.468,2.805L17.655,22.056z" fill="#FFFFFF"/>
</g>
<g>
</g>
<g>
</g>
<g>
</g>
<g>
</g>
<g>
</g>
<g>
</g>
<g>
</g>
<g>
</g>
<g>
</g>
<g>
</g>
<g>
</g>
<g>
</g>
<g>
</g>
<g>
</g>
<g>
</g>
</svg>
