<?xml version="1.0" encoding="utf-8"?>
<!-- Generator: Adobe Illustrator 19.0.0, SVG Export Plug-In . SVG Version: 6.00 Build 0)  -->
<svg version="1.1" id="Layer_1" xmlns="http://www.w3.org/2000/svg" xmlns:xlink="http://www.w3.org/1999/xlink" x="0px" y="0px"
	 width="48px" height="51px" viewBox="0 0 48 51" style="enable-background:new 0 0 48 51;" xml:space="preserve">
<path id="XMLID_44_" d="M42.2,25v-9h-3.9c1.5-0.4,2.8-1.4,3.5-2.8c0.6-1.2,0.5-2.6-0.1-3.8l-4.6-9.2l-4.6,9.2
	c-0.7,1.4-0.6,3,0.1,4.2c0.7,1.2,1.9,2.1,3.3,2.4h-3.9v8.8H29V16h-3.9c1.5-0.4,2.8-1.4,3.5-2.8c0.6-1.2,0.5-2.6-0.1-3.8l-4.6-9.2
	l-4.6,9.2c-0.7,1.4-0.6,3,0.1,4.2c0.7,1.2,1.9,2.1,3.3,2.4h-3.9v8.8H16V16h-3.9c1.5-0.4,2.8-1.4,3.5-2.8c0.6-1.2,0.5-2.6-0.1-3.8
	l-4.6-9.2L6.4,9.4c-0.7,1.4-0.6,3,0.1,4.2c0.7,1.2,1.9,2.1,3.3,2.4H5.9v9c-3.2,0.7-5.6,3.5-5.6,6.9c0,1.6,0.6,3.1,1.5,4.3v14.6h44.5
	V36.2c0.9-1.2,1.5-2.7,1.5-4.3C47.7,28.5,45.3,25.6,42.2,25z M35.2,12.1c-0.2-0.4-0.2-0.9,0-1.4L37.1,7l1.9,3.8
	c0.2,0.4,0.2,0.8,0.1,1.2c-0.4,0.8-1.1,1.2-2,1.2C36.3,13.2,35.6,12.8,35.2,12.1z M35.1,19h4.1v5.8h-4.1V19z M22.1,12.1
	c-0.2-0.4-0.2-0.9,0-1.4L23.9,7l1.9,3.8c0.2,0.4,0.2,0.8,0.1,1.2c-0.4,0.8-1.1,1.2-2,1.2C23.1,13.2,22.5,12.8,22.1,12.1z M21.9,19
	H26v5.8h-4.1V19z M9.1,12.1c-0.2-0.4-0.2-0.9,0-1.4L10.9,7l1.9,3.8c0.2,0.4,0.2,0.8,0.1,1.2c-0.4,0.8-1.1,1.2-2,1.2
	C10.1,13.2,9.5,12.8,9.1,12.1z M8.9,19H13v5.8H8.9V19z M7.3,27.8H16h2.9H29h3.1h8.6c2.2,0,4,1.8,4,4s-1.8,4-4,4s-4-1.8-4-4h-0.2
	h-2.8h-0.2c0,2.2-1.8,4-4,4s-4-1.8-4-4h-3c0,2.2-1.8,4-4,4s-4-1.8-4-4h-3c0,2.2-1.8,4-4,4s-4-1.8-4-4S5.1,27.8,7.3,27.8z M4.8,47.8
	v-9.4c0.8,0.3,1.6,0.5,2.5,0.5c2.2,0,4.3-1.1,5.5-2.7c1.3,1.6,3.3,2.7,5.5,2.7c2.2,0,4.3-1.1,5.5-2.7c1.3,1.6,3.3,2.7,5.5,2.7
	c2.3,0,4.3-1.1,5.6-2.8c1.3,1.7,3.3,2.8,5.6,2.8c0.9,0,1.8-0.2,2.5-0.5v9.4H4.8z"/>
</svg>
