<?xml version="1.0" encoding="UTF-8" standalone="no"?>
<!DOCTYPE svg  PUBLIC '-//W3C//DTD SVG 1.1//EN'  'http://www.w3.org/Graphics/SVG/1.1/DTD/svg11.dtd'>
<svg style="enable-background:new 0 0 35 35" xmlns="http://www.w3.org/2000/svg" xml:space="preserve" height="35px" viewBox="0 0 512 512" width="35px" version="1.1" y="0px" x="0px" xmlns:xlink="http://www.w3.org/1999/xlink">
	<path d="m256 0c-88 0-160 71.6-160 160 0 23.9 5.25 46.6 14.6 66.9l122 264c5 13 14 21 23 21 9.31 0 17.7-7.94 23.5-20.6l122-264c9-20 14-43 14-67 0-88.4-72-160-160-160zm0 256c-53 0-96-43-96-96s43-96 96-96 96 43 96 96-43 96-96 96z" fill="#76bd3f"/>
</svg>

