<?xml version="1.0" encoding="utf-8"?>
<!-- Generator: Adobe Illustrator 19.0.0, SVG Export Plug-In . SVG Version: 6.00 Build 0)  -->
<svg version="1.1" id="Layer_1" xmlns="http://www.w3.org/2000/svg" xmlns:xlink="http://www.w3.org/1999/xlink" x="0px" y="0px"
	 width="55px" height="55px" viewBox="0 0 55 55" style="enable-background:new 0 0 55 55;" xml:space="preserve">
<path id="XMLID_17_" d="M39,17.3c0.3-4.3-0.7-8.1-3-10.7c-2.9-3.3-7.4-4.1-12.4-2l1.5,3.7c2.3-1,5.6-1.6,7.8,0.9
	c2.6,3,3.3,10-1.2,18.6c-0.6-0.2-1.3-0.5-2.3-0.8c-4.6-1.6-13.1-4.6-14-9c-0.3-1.7,0.5-3.6,2.4-5.8c1.2,2.9,3.4,5.6,7.3,7.4l1.7-3.6
	c-6.8-3.2-6.6-10.1-6.5-14.7c0-0.5,0-1,0-1.4h-4c0,0.4,0,0.8,0,1.3c0,1.8-0.1,4,0.3,6.5c-3.9,3.7-5.7,7.2-5.2,10.6
	c-6.5,1.8-11.2,4.9-11.2,9.1c0,4.6,1.3,27.7,27.1,27.7c25.8,0,27.1-23,27.1-27.7C54.6,22.3,47.8,18.9,39,17.3z M13.2,22
	c3.2,4.5,10.4,7,15.1,8.7c1.3,0.4,2.8,1,3.1,1.2l1.8,1.6l1.2-2.1c2-3.4,3.3-6.9,4-10.1c7.6,1.4,12.1,4.1,12.1,6.1
	c0,2.9-9,7.1-23.1,7.1c-14.1,0-23.1-4.2-23.1-7.1C4.4,25.7,7.6,23.5,13.2,22z M27.5,51.1c-15.7,0-20.8-9.8-22.4-17.2
	c5.1,3,13.8,4.6,22.4,4.6c8.6,0,17.2-1.6,22.4-4.6C48.3,41.3,43.2,51.1,27.5,51.1z"/>
</svg>
