<?xml version="1.0" encoding="utf-8"?>
<!-- Generator: Adobe Illustrator 19.0.0, SVG Export Plug-In . SVG Version: 6.00 Build 0)  -->
<svg version="1.1" id="Layer_1" xmlns="http://www.w3.org/2000/svg" xmlns:xlink="http://www.w3.org/1999/xlink" x="0px" y="0px"
	 width="57px" height="46.7px" viewBox="0 0 57 46.7" style="enable-background:new 0 0 57 46.7;" xml:space="preserve">
<path id="XMLID_8_" d="M46.4,8.5h3.8v-4H34.5C33.6,1.9,31.2,0,28.3,0S23,1.9,22.1,4.5H6.4v4h4.2L0,26.5V27c0,5.9,4.8,10.8,10.8,10.8
	S21.5,32.9,21.5,27v-0.5l-10.6-18h11.2c0.6,2,2.2,3.5,4.2,4.2v30h-8.8v4h8.8h4h9.2v-4h-9.2v-30c2-0.6,3.5-2.2,4.2-4.2h11.6l-10.6,18
	V27c0,5.9,4.8,10.8,10.8,10.8S57,32.9,57,27v-0.5L46.4,8.5z M10.8,33.8c-3,0-5.6-2-6.4-4.8h12.9C16.3,31.7,13.8,33.8,10.8,33.8z
	 M5.5,25l5.2-8.9L16,25H5.5z M28.3,10c-1.7,0-3.1-1.2-3.4-2.8V5.8C25.2,4.2,26.6,3,28.3,3c1.9,0,3.5,1.6,3.5,3.5S30.2,10,28.3,10z
	 M46.3,16.1l5.2,8.9H41L46.3,16.1z M46.3,33.8c-3,0-5.6-2-6.4-4.8h12.9C51.8,31.7,49.3,33.8,46.3,33.8z"/>
</svg>
