<svg xmlns="http://www.w3.org/2000/svg" width="612" height="612" viewBox="0 0 612 612" fill="#fafafa"><path d="M444.193 276.387h-108.58V148.064c0-16.366-13.247-29.613-29.613-29.613s-29.613 13.247-29.613 29.613v187.549h167.806c16.347 0 29.613-13.247 29.613-29.613s-13.266-29.613-29.613-29.613zM306 0C137.009 0 0 137.009 0 306s137.009 306 306 306 306-137.009 306-306S474.991 0 306 0zm0 552.774C169.919 552.774 59.226 442.081 59.226 306S169.919 59.226 306 59.226 552.774 169.919 552.774 306 442.081 552.774 306 552.774z"/></svg>