<?xml version="1.0" encoding="utf-8"?>
<!-- Generator: Adobe Illustrator 19.0.0, SVG Export Plug-In . SVG Version: 6.00 Build 0)  -->
<svg version="1.1" id="Capa_1" xmlns="http://www.w3.org/2000/svg" xmlns:xlink="http://www.w3.org/1999/xlink" x="0px" y="0px"
	 viewBox="155 -156.4 486.4 486.4" style="enable-background:new 155 -156.4 486.4 486.4;" xml:space="preserve">
<g>
	<g>
		<g>
			<path class="st0" d="M585.1-21.1c-13.3-96.1-109.1-145.1-211.3-133.6c-80.8,9.1-161.4,74.4-164.7,167.8
				c-2,57,14.1,99.8,68.4,111.8c23.5-41.6-7.6-50.7-12.4-80.8C245.2-79,407.2-163.1,492-77.1c58.7,59.6,20,242.8-74.6,223.7
				c-90.6-18.2,44.4-164-27.9-192.6c-58.8-23.3-90,71.1-62.1,118.1C311,152.8,275.8,228.8,290,330c46.2-33.6,61.8-97.7,74.6-164.7
				c23.2,14.1,35.7,28.8,65.3,31C539.1,204.8,600.1,87.3,585.1-21.1z"/>
		</g>
	</g>
</g>
</svg>
