<?xml version="1.0" encoding="utf-8"?>
<!-- Generator: Adobe Illustrator 19.0.0, SVG Export Plug-In . SVG Version: 6.00 Build 0)  -->
<svg version="1.1" id="Capa_1" xmlns="http://www.w3.org/2000/svg" xmlns:xlink="http://www.w3.org/1999/xlink" x="0px" y="0px"
	 viewBox="-38 39.6 97.4 97.4" style="enable-background:new -38 39.6 97.4 97.4;" xml:space="preserve">
<g>
	<path d="M-25.5,39.6h72.4c6.9,0,12.5,5.1,12.5,12.5v72.4c0,7.4-5.6,12.5-12.5,12.5h-72.4c-6.9,0-12.5-5.1-12.5-12.5V52.1
		C-38,44.7-32.4,39.6-25.5,39.6L-25.5,39.6z M32.9,50.4c-2.4,0-4.4,2-4.4,4.4v10.5c0,2.4,2,4.4,4.4,4.4h11c2.4,0,4.4-2,4.4-4.4V54.8
		c0-2.4-2-4.4-4.4-4.4H32.9L32.9,50.4z M48.4,80.8h-8.6c0.8,2.6,1.3,5.5,1.3,8.4c0,16.2-13.6,29.3-30.3,29.3
		c-16.7,0-30.3-13.1-30.3-29.3c0-2.9,0.4-5.7,1.3-8.4h-8.9v41.1c0,2.1,1.7,3.9,3.9,3.9h67.8c2.1,0,3.9-1.7,3.9-3.9L48.4,80.8
		L48.4,80.8z M10.8,69.1c-10.8,0-19.6,8.5-19.6,19s8.8,19,19.6,19c10.8,0,19.6-8.5,19.6-19S21.6,69.1,10.8,69.1z"/>
</g>
</svg>
