<?xml version="1.0" encoding="utf-8"?>
<!-- Generator: Adobe Illustrator 19.0.0, SVG Export Plug-In . SVG Version: 6.00 Build 0)  -->
<svg version="1.1" id="Capa_1" xmlns="http://www.w3.org/2000/svg" xmlns:xlink="http://www.w3.org/1999/xlink" x="0px" y="0px"
	 viewBox="-75 75.7 24.3 24.3" style="enable-background:new -75 75.7 24.3 24.3;" xml:space="preserve">
<g>
	<g id="c40_rss">
		<path d="M-71.4,92.8c-2,0-3.6,1.6-3.6,3.6c0,2,1.6,3.6,3.6,3.6c2,0,3.6-1.6,3.6-3.6C-67.8,94.4-69.4,92.8-71.4,92.8z"/>
		<path d="M-74.6,83.6c-0.2,0-0.4,0.2-0.4,0.4v4.6c0,0.2,0.2,0.4,0.4,0.4c5.9,0,10.7,4.8,10.7,10.7c0,0.2,0.2,0.4,0.4,0.4h4.6h0
			c0.2,0,0.4-0.2,0.4-0.4l0-0.1C-58.7,90.7-65.8,83.6-74.6,83.6z"/>
		<path d="M-50.7,99.5c-0.1-13.1-10.8-23.8-23.9-23.8c-0.2,0-0.4,0.2-0.4,0.4v4.7c0,0.2,0.2,0.4,0.4,0.4c10.2,0,18.5,8.3,18.5,18.5
			c0,0.2,0.2,0.4,0.4,0.4h4.7h0c0.2,0,0.4-0.2,0.4-0.4L-50.7,99.5z"/>
	</g>
	<g id="Capa_1_3_">
	</g>
</g>
</svg>
