<?xml version="1.0" encoding="utf-8"?>
<!-- Generator: Adobe Illustrator 19.0.0, SVG Export Plug-In . SVG Version: 6.00 Build 0)  -->
<svg version="1.1" id="Layer_1" xmlns="http://www.w3.org/2000/svg" xmlns:xlink="http://www.w3.org/1999/xlink" x="0px" y="0px"
	 viewBox="-279 371 52 52" style="enable-background:new -279 371 52 52;" xml:space="preserve">
<style type="text/css">
	.st0{fill:none;stroke:#231F20;stroke-width:3;stroke-miterlimit:10;}
	.st1{fill:none;stroke:#231F20;stroke-width:3;stroke-linecap:square;stroke-miterlimit:10;}
</style>
<image style="display:none;overflow:visible;enable-background:new    ;" width="48" height="38" xlink:href="2B3C6EBA.png"  transform="matrix(1 0 0 1 -279.1667 370.6667)">
</image>
<g>
	<path class="st0" d="M-275.1,397v2.8c0,0,0,3.2,3.4,3.2s5.7,0,5.7,0l7.2,7.5V397v-13.5l-7.2,7.5c0,0-2.3,0-5.7,0s-3.4,3.2-3.4,3.2
		V397z"/>
	<path class="st1" d="M-235.6,381.3c2.1,3.1,4.8,7.7,4.8,15.6s-3.1,13.8-4.8,15.8"/>
	<path class="st1" d="M-241.8,386.8c1.4,2,3.1,5,3.1,10.2s-2,9-3.1,10.3"/>
	<path class="st1" d="M-248.4,392.2c0.6,1,1.5,2.3,1.5,4.8s-1,4.2-1.5,4.8"/>
</g>
</svg>
