<svg version="1" xmlns="http://www.w3.org/2000/svg" width="632" height="632" viewBox="0 0 474.000000 474.000000"><path d="M212.5 1.1C173.4 5.9 138.1 18.7 107 39.5 48.4 78.7 11.9 137.9 2.6 209c-1.4 10.5-1.5 46.8-.2 55.5.4 2.2.9 6 1.3 8.5.3 2.5.7 4.9.9 5.5.1.5.5 2.6.8 4.5 1.1 6 5.6 23.2 7.8 29.5 23 67.1 72.7 119.2 138.4 145.3 28.6 11.4 55.9 16.2 89.4 15.7 11.3-.2 21.9-.6 23.5-.9 1.7-.3 4.8-.7 7-1 16-2.1 45.8-10.2 55-15 1.7-.9 3.4-1.6 3.8-1.6.4 0 4.7-1.9 9.5-4.3 26.5-13.2 44.9-26.3 64.7-46.2 12.5-12.6 13.6-13.9 22.3-25.5 24.9-33.3 40.2-71.5 45.6-114 1.3-9.5 1.5-51.7.3-56-.2-.8-.7-3.8-1.1-6.5-7.5-50.3-31.2-97.4-66.5-132.5-15-14.8-23.5-21.8-39.6-32.3-27.5-17.9-62.3-30.9-94-35.3-2.7-.3-5.9-.9-7-1.1-3.9-.9-45.1-1-52-.2zm50 14.2c1.1.3 4.5.8 7.5 1.2 45.2 6 90.6 28.9 124.5 63 36.7 36.8 58.6 82.5 64.2 134 1 9 1 38.9 0 48-4.5 40.8-20.7 80.3-46.6 113.5-6.2 8-22.3 24.9-30.1 31.5-17.1 14.7-41 29.2-61.5 37.3-8.8 3.5-24.2 8.6-29.2 9.7-24.8 5.3-34.6 6.3-57.3 5.9-10.7-.1-20.6-.5-22-.8-1.4-.2-5.6-.9-9.5-1.5-3.8-.6-8.1-1.3-9.5-1.6-1.4-.3-3.6-.8-5-1.1-7-1.4-27.1-7.6-33.5-10.4-30-13-52.6-28.1-73.5-49-26.2-26.1-44.1-55.2-55.2-89.5-7.7-24.1-10.3-40.9-10.3-68.5 0-20.6.9-30.5 4.5-46.8.7-3 1.3-5.9 1.4-6.5 1.4-6.9 6.9-23.4 11.3-33.7C56 95.7 96.7 55.3 153 30.7c15.2-6.6 43.3-13.8 60-15.3 4.1-.3 7.7-.8 7.9-1 .6-.5 39.1.3 41.6.9z"/><path d="M193 100c-23.9 24.1-43.6 44.2-43.7 44.7-.2.5.7 1.9 2 3.1l2.3 2.2 38.5-38.8c21.2-21.3 39.3-39.3 40.2-40.1 1.6-1.2 1.7 1.9 1.7 43.7v45l-42.9 43-42.9 43.1 2.2 2c1.2 1.2 2.6 2.1 3 2.1.4 0 18.7-18 40.6-40l40-40v90.5l-42.6 42.7-42.7 42.7 1.7 2.6c.9 1.4 2.1 2.5 2.6 2.5s18.9-18.1 40.9-40.2l40.1-40.2v143.1l2.8-.3c1.5-.1 3-.2 3.5-.3.4-.1.7-32.1.7-71.3v-71.2l40.4 40.6 40.4 40.6 2.1-2.2c1.2-1.2 2.1-2.6 2.1-3 0-.5-19.1-20-42.5-43.5L241 260.5v-90.7l39.9 40.1c21.9 22.1 40.2 40.1 40.6 40.1.5 0 1.9-.9 3.1-2.1l2.2-2.1-42.9-43-42.9-43.1v-44.9c0-27.6.4-44.7.9-44.3.5.3 18.7 18.3 40.3 40l39.3 39.4 2.2-2.1c1.3-1.2 2.3-2.4 2.3-2.8 0-1-87.8-89-88.7-88.9-.5 0-20.4 19.8-44.3 43.9z"/></svg>