<svg version="1" xmlns="http://www.w3.org/2000/svg" width="622.667" height="622.667" viewBox="0 0 467.000000 467.000000"><path d="M214 10.1c-32.4 27-85.1 78-107.3 103.9-21.3 24.9-40.5 51.4-53.5 74-24 41.8-29.2 79.2-17.3 124.6 8.4 31.8 21.4 56.4 43.7 82.3 17.5 20.4 37.6 35.8 62.9 48.2 70.5 34.5 153.2 25.4 214.5-23.8 15.4-12.3 31.1-29.9 43.3-48.3 20.8-31.5 33-74 31.4-109.4-1-21.2-6.4-40.8-17.2-62.1C387.4 146.1 332.1 82.4 256.9 18L240.5 3.9l-.3 17.3c-.1 9.5 0 18.3.3 19.6.6 2.6 9.5 13.3 32.6 39.4 42.8 48.4 67.8 81.1 86.3 113.4 13.6 23.5 20.7 49.9 19.1 70.9-2 26.4-11 53-24.7 72.7-14.1 20.3-28.8 33.8-49.7 45.6-25.9 14.7-47.4 19.9-79 18.9-15.5-.4-19.1-.9-29.9-3.7-15-3.8-23.1-7-36.8-14.6-20.8-11.6-36.2-25.8-50.3-46.4-14.7-21.5-23.5-47.8-24.8-74.5-1-20.6 2.6-35.2 14.1-57.9 15.2-29.8 38.9-61.6 87.6-117 22.2-25.4 34.1-40.1 35.8-44.1.9-2.1 1.2-8.4 1-21.3l-.3-18.4-7.5 6.3z"/></svg>