<?xml version="1.0" encoding="iso-8859-1"?>
<!-- Generator: Adobe Illustrator 18.1.1, SVG Export Plug-In . SVG Version: 6.00 Build 0)  -->
<svg xmlns="http://www.w3.org/2000/svg" xmlns:xlink="http://www.w3.org/1999/xlink" version="1.1" id="Capa_1" x="0px" y="0px" viewBox="0 0 543.906 543.906" style="enable-background:new 0 0 543.906 543.906;" xml:space="preserve" width="512px" height="512px">
<g>
	<path d="M271.959,0C121.77,0,0,121.753,0,271.953c0,111.354,66.966,207.022,162.786,249.082   c-0.767-18.993-0.136-41.788,4.732-62.446c5.227-22.083,34.995-148.187,34.995-148.187s-8.692-17.356-8.692-43.028   c0-40.298,23.361-70.398,52.449-70.398c24.737,0,36.686,18.58,36.686,40.826c0,24.867-15.86,62.06-24.013,96.511   c-6.815,28.854,14.462,52.378,42.925,52.378c51.53,0,86.231-66.177,86.231-144.587c0-59.601-40.146-104.212-113.16-104.212   c-82.494,0-133.888,61.521-133.888,130.233c0,23.693,6.984,40.407,17.927,53.341c5.031,5.945,5.733,8.333,3.911,15.153   c-1.305,5.004-4.302,17.051-5.542,21.832c-1.811,6.886-7.392,9.35-13.614,6.799c-37.997-15.512-55.696-57.116-55.696-103.892   c0-77.251,65.155-169.884,194.37-169.884c103.832,0,172.157,75.13,172.157,155.786c0,106.682-59.308,186.38-146.741,186.38   c-29.355,0-56.98-15.871-66.438-33.896c0,0-15.79,62.658-19.135,74.755c-5.765,20.968-17.051,41.93-27.375,58.258   c24.47,7.218,50.306,11.15,77.082,11.15c150.183,0,271.948-121.759,271.948-271.953C543.906,121.753,422.142,0,271.959,0" fill="#6d808e"/>
</g>
</svg>
