<?xml version="1.0" encoding="iso-8859-1"?>
<!-- Generator: Adobe Illustrator 18.1.1, SVG Export Plug-In . SVG Version: 6.00 Build 0)  -->
<svg xmlns="http://www.w3.org/2000/svg" xmlns:xlink="http://www.w3.org/1999/xlink" version="1.1" id="Capa_1" x="0px" y="0px" viewBox="0 0 611.999 611.999" style="enable-background:new 0 0 611.999 611.999;" xml:space="preserve" width="512px" height="512px">
<g>
	<g>
		<path d="M603.893,152.178c-6.314-7.295-15.487-11.487-25.133-11.487H145.732l-24.385-41.546    c-4.117-7.013-10.66-12.275-18.394-14.787L43.521,65.04C26.07,59.366,7.31,68.919,1.637,86.378    c-5.676,17.459,3.877,36.213,21.336,41.887l47.428,15.416l162.246,276.434c5.97,10.168,16.876,16.415,28.666,16.415h284.208    c16.516,0,30.528-12.127,32.897-28.473l33.239-229.356C613.037,169.15,610.207,159.472,603.893,152.178z M448.933,311.422h-35.362    v35.357c0,12.599-10.211,22.814-22.81,22.814c-12.599,0-22.812-10.214-22.812-22.814v-35.357h-35.355    c-12.599,0-22.814-10.213-22.814-22.814c0-12.599,10.215-22.814,22.814-22.814h35.355v-35.357    c0-12.599,10.213-22.814,22.812-22.814c12.599,0,22.81,10.214,22.81,22.814v35.357h35.362c12.599,0,22.812,10.215,22.812,22.814    C471.747,301.208,461.534,311.422,448.933,311.422z" fill="#fbfbfb"/>
		<circle cx="300.037" cy="503.008" r="45.588" fill="#fbfbfb"/>
		<path d="M494.829,457.421c-25.186,0-45.589,20.413-45.589,45.588c0,25.177,20.404,45.586,45.589,45.586    c25.178,0,45.584-20.409,45.584-45.586C540.413,477.834,520.008,457.421,494.829,457.421z" fill="#fbfbfb"/>
	</g>
</g>
<g>
</g>
<g>
</g>
<g>
</g>
<g>
</g>
<g>
</g>
<g>
</g>
<g>
</g>
<g>
</g>
<g>
</g>
<g>
</g>
<g>
</g>
<g>
</g>
<g>
</g>
<g>
</g>
<g>
</g>
</svg>
