<svg version="1" xmlns="http://www.w3.org/2000/svg" width="933.333" height="933.333" viewBox="0 0 700.000000 700.000000"><path d="M328.5.6c-20.3 2-27.6 2.8-37.5 4.5-58.4 10.1-112.4 34.5-160.5 72.6-14.1 11.2-41.6 38.7-52.8 52.8C34.5 184.9 10.4 243.3 1.8 314c-2 16-1.6 59.3.6 76.5 9.2 72.7 37.5 136 84.7 190 56.9 65.2 134.2 105.8 222.4 117.1 19.6 2.5 61.4 2.5 81 0 82.2-10.5 154.3-46.2 210.5-104.2 54.9-56.7 88.3-128.2 97.2-207.9 1.7-15.4 1.7-55.6 0-71-11.8-106-67.3-197.6-155.4-256.3C497.8 28.3 447 9.6 391 2.5 379.3 1 337.4-.3 328.5.6zM360 161.5c2.2 1.4 4.7 3.6 5.6 5 .9 1.4 10.5 29.6 21.3 62.7l19.7 60.3 65.4.5c58.5.4 65.8.7 68.5 2.2 11.8 6.5 14 21.5 4.4 30.5-1.9 1.7-25.7 19.2-52.9 38.9-27.2 19.6-49.6 35.8-49.7 35.9-.2.1 8.5 26.9 19.2 59.6s19.7 61.3 20.1 63.7c1.3 8.5-4.9 17.9-13.5 20.2-4.6 1.2-10.4.2-15.3-2.7-1.8-1.1-25.5-18-52.6-37.6S350.5 465 350 465c-.6 0-23.2 16.1-50.2 35.7-27.1 19.6-50.8 36.5-52.6 37.6-4.9 2.9-10.7 3.9-15.3 2.7-8.6-2.3-14.8-11.6-13.5-20.2.4-2.4 9.4-31.1 20.1-63.7 10.7-32.7 19.3-59.6 19.2-59.6-2-1.4-96.6-69.8-99.9-72.4-12.2-9.3-11.6-25 1.3-32.6 3.3-1.9 5.7-2 68.8-2.5l65.5-.5 19.7-60.2c10.8-33.2 20.4-61.4 21.3-62.8 1.7-2.6 7.8-6.9 11.2-7.8 3.6-1.1 10.4.3 14.4 2.8z"/></svg>