<?xml version="1.0" standalone="no"?>
<!DOCTYPE svg PUBLIC "-//W3C//DTD SVG 20010904//EN"
 "http://www.w3.org/TR/2001/REC-SVG-20010904/DTD/svg10.dtd">
<svg version="1.0" xmlns="http://www.w3.org/2000/svg"
 width="700.000000pt" height="700.000000pt" viewBox="0 0 700.000000 700.000000"
 preserveAspectRatio="xMidYMid meet">
<metadata>
Created by potrace 1.11, written by Peter Selinger 2001-2013
</metadata>
<g transform="translate(0.000000,700.000000) scale(0.100000,-0.100000)"
fill="#000000" stroke="none">
<path d="M3285 6994 c-203 -20 -276 -28 -375 -45 -584 -101 -1124 -345 -1605
-726 -141 -112 -416 -387 -528 -528 -432 -544 -673 -1128 -759 -1835 -20 -160
-16 -593 6 -765 92 -727 375 -1360 847 -1900 569 -652 1342 -1058 2224 -1171
196 -25 614 -25 810 0 822 105 1543 462 2105 1042 549 567 883 1282 972 2079
17 154 17 556 0 710 -118 1060 -673 1976 -1554 2563 -450 299 -958 486 -1518
557 -117 15 -536 28 -625 19z m315 -1609 c22 -14 47 -36 56 -50 9 -14 105
-296 213 -627 l197 -603 654 -5 c585 -4 658 -7 685 -22 118 -65 140 -215 44
-305 -19 -17 -257 -192 -529 -389 -272 -196 -496 -358 -497 -359 -2 -1 85
-269 192 -596 107 -327 197 -613 201 -637 13 -85 -49 -179 -135 -202 -46 -12
-104 -2 -153 27 -18 11 -255 180 -526 376 -271 196 -497 357 -502 357 -6 0
-232 -161 -502 -357 -271 -196 -508 -365 -526 -376 -49 -29 -107 -39 -153 -27
-86 23 -148 116 -135 202 4 24 94 311 201 637 107 327 193 596 192 596 -20 14
-966 698 -999 724 -122 93 -116 250 13 326 33 19 57 20 688 25 l655 5 197 602
c108 332 204 614 213 628 17 26 78 69 112 78 36 11 104 -3 144 -28z"/>
</g>
</svg>
