<svg xmlns="http://www.w3.org/2000/svg" width="57" height="57" viewBox="0 0 612 612"><g fill="#202020"><path d="M437.219 245.162c0-3.088-.056-6.148-.195-9.18 13.214-9.848 24.675-22.171 33.744-36.275a129.554 129.554 0 0 1-38.835 10.626c13.965-8.596 24.675-22.338 29.738-38.834-13.075 7.928-27.54 13.603-42.924 16.552-12.323-14.021-29.904-22.95-49.35-23.284-37.332-.612-67.598 30.934-67.598 70.463 0 5.619.584 11.072 1.752 16.329-56.22-3.616-106.042-32.881-139.369-77-5.814 10.571-9.152 22.922-9.152 36.164 0 25.037 11.934 47.291 30.071 60.421-11.099-.5-21.503-3.866-30.627-9.375v.918c0 34.996 23.312 64.316 54.245 71.159a64.033 64.033 0 0 1-17.804 2.421 61.759 61.759 0 0 1-12.713-1.392c8.596 28.681 33.577 49.628 63.147 50.323-23.145 19.194-52.298 30.655-83.955 30.572-5.453 0-10.849-.361-16.135-1.029 29.933 20.53 65.456 32.491 103.65 32.491 124.321.029 192.31-108.184 192.31-202.07z"/><path d="M612 306C612 137.004 474.995 0 306 0 137.004 0 0 137.004 0 306c0 168.995 137.004 306 306 306 168.995 0 306-137.005 306-306zm-584.182 0C27.818 152.36 152.36 27.818 306 27.818S584.182 152.36 584.182 306 459.64 584.182 306 584.182 27.818 459.64 27.818 306z"/></g></svg>