<?xml version="1.0" standalone="no"?>
<!DOCTYPE svg PUBLIC "-//W3C//DTD SVG 20010904//EN"
 "http://www.w3.org/TR/2001/REC-SVG-20010904/DTD/svg10.dtd">
<svg version="1.0" xmlns="http://www.w3.org/2000/svg"
 width="467.000000pt" height="467.000000pt" viewBox="0 0 467.000000 467.000000"
 preserveAspectRatio="xMidYMid meet">
<metadata>
Created by potrace 1.11, written by Peter Selinger 2001-2013
</metadata>
<g transform="translate(0.000000,467.000000) scale(0.100000,-0.100000)"
fill="#000000" stroke="none">
<path d="M2140 4569 c-324 -270 -851 -780 -1073 -1039 -213 -249 -405 -514
-535 -740 -240 -418 -292 -792 -173 -1246 84 -318 214 -564 437 -823 175 -204
376 -358 629 -482 705 -345 1532 -254 2145 238 154 123 311 299 433 483 208
315 330 740 314 1094 -10 212 -64 408 -172 621 -271 534 -824 1171 -1576 1815
l-164 141 -3 -173 c-1 -95 0 -183 3 -196 6 -26 95 -133 326 -394 428 -484 678
-811 863 -1134 136 -235 207 -499 191 -709 -20 -264 -110 -530 -247 -727 -141
-203 -288 -338 -497 -456 -259 -147 -474 -199 -790 -189 -155 4 -191 9 -299
37 -150 38 -231 70 -368 146 -208 116 -362 258 -503 464 -147 215 -235 478
-248 745 -10 206 26 352 141 579 152 298 389 616 876 1170 222 254 341 401
358 441 9 21 12 84 10 213 l-3 184 -75 -63z"/>
</g>
</svg>
