<svg xmlns="http://www.w3.org/2000/svg" width="48" height="51" viewBox="0 0 48 51"><path d="M42.2 25v-9h-3.9c1.5-.4 2.8-1.4 3.5-2.8.6-1.2.5-2.6-.1-3.8L37.1.2l-4.6 9.2c-.7 1.4-.6 3 .1 4.2.7 1.2 1.9 2.1 3.3 2.4H32v8.8h-3V16h-3.9c1.5-.4 2.8-1.4 3.5-2.8.6-1.2.5-2.6-.1-3.8L23.9.2l-4.6 9.2c-.7 1.4-.6 3 .1 4.2.7 1.2 1.9 2.1 3.3 2.4h-3.9v8.8H16V16h-3.9c1.5-.4 2.8-1.4 3.5-2.8.6-1.2.5-2.6-.1-3.8L10.9.2 6.4 9.4c-.7 1.4-.6 3 .1 4.2.7 1.2 1.9 2.1 3.3 2.4H5.9v9c-3.2.7-5.6 3.5-5.6 6.9 0 1.6.6 3.1 1.5 4.3v14.6h44.5V36.2c.9-1.2 1.5-2.7 1.5-4.3-.1-3.4-2.5-6.3-5.6-6.9zm-7-12.9c-.2-.4-.2-.9 0-1.4L37.1 7l1.9 3.8c.2.4.2.8.1 1.2-.4.8-1.1 1.2-2 1.2-.8 0-1.5-.4-1.9-1.1zm-.1 6.9h4.1v5.8h-4.1V19zm-13-6.9c-.2-.4-.2-.9 0-1.4L23.9 7l1.9 3.8c.2.4.2.8.1 1.2-.4.8-1.1 1.2-2 1.2-.8 0-1.4-.4-1.8-1.1zm-.2 6.9H26v5.8h-4.1V19zM9.1 12.1c-.2-.4-.2-.9 0-1.4L10.9 7l1.9 3.8c.2.4.2.8.1 1.2-.4.8-1.1 1.2-2 1.2-.8 0-1.4-.4-1.8-1.1zM8.9 19H13v5.8H8.9V19zm-1.6 8.8h33.4c2.2 0 4 1.8 4 4s-1.8 4-4 4-4-1.8-4-4h-3.2c0 2.2-1.8 4-4 4s-4-1.8-4-4h-3c0 2.2-1.8 4-4 4s-4-1.8-4-4h-3c0 2.2-1.8 4-4 4s-4-1.8-4-4 1.6-4 3.8-4zm-2.5 20v-9.4c.8.3 1.6.5 2.5.5 2.2 0 4.3-1.1 5.5-2.7 1.3 1.6 3.3 2.7 5.5 2.7s4.3-1.1 5.5-2.7c1.3 1.6 3.3 2.7 5.5 2.7 2.3 0 4.3-1.1 5.6-2.8 1.3 1.7 3.3 2.8 5.6 2.8.9 0 1.8-.2 2.5-.5v9.4H4.8z"/></svg>