<svg xmlns="http://www.w3.org/2000/svg" height="32" viewBox="0 0 511.626 511.626" width="40"><g fill="#76bd3f"><path d="M49.1 179c6.47 4.57 26 18.1 58.5 40.7s57.5 39.9 74.8 52.1c1.9 1.34 5.95 4.24 12.1 8.71 6.19 4.48 11.3 8.09 15.4 10.9 4.09 2.76 9.04 5.85 14.8 9.28 5.81 3.42 11.3 6 16.4 7.7 5.14 1.72 9.9 2.57 14.3 2.57h.575c4.38 0 9.14-.852 14.3-2.57 5.14-1.7 10.6-4.28 16.4-7.7 5.8-3.43 10.8-6.52 14.8-9.28 4.09-2.76 9.23-6.38 15.4-10.9 6.18-4.48 10.2-7.38 12.1-8.71 17.5-12.2 62.1-43.1 134-92.8 13.9-9.7 25.5-21.4 34.8-35.1 9.33-13.7 14-28.1 14-43.1 0-12.6-4.52-23.3-13.6-32.3-9.04-8.95-19.7-13.4-32.1-13.4h-418c-14.7 0-25.9 4.95-33.8 14.8-8.25 9.5-12.2 21.8-12.2 36.9 0 12 5.24 25 15.7 39s21.6 25 33.4 33z"/><path d="M483 209c-62.4 42.3-110 75.1-142 98.5-10.8 7.99-19.6 14.2-26.4 18.7-6.76 4.47-15.7 9.04-27 13.7-11.2 4.67-21.7 7-31.4 7h-.578c-9.71 0-20.2-2.33-31.4-7-11.2-4.66-20.2-9.23-27-13.7-6.76-4.47-15.6-10.7-26.4-18.7-25.7-18.8-73-51.7-142-98.5-13-8-22.6-16-31-26v227c0 12.6 4.47 23.3 13.4 32.3 8.94 8.95 19.7 13.4 32.3 13.4h420c12.6 0 23.3-4.47 32.3-13.4 8.95-8.95 13.4-19.7 13.4-32.3V183c-8 10-17 18-28 25z"/></g></svg>