<svg xmlns="http://www.w3.org/2000/svg" height="32" viewBox="0 0 348.077 348.077" width="32"><path d="M340 275l-53.8-53.8c-10.7-10.7-28.4-10.3-39.5.744l-27.1 27.1c-1.71-.943-3.48-1.93-5.34-2.97-17.1-9.48-40.5-22.5-65.1-47.1-24.7-24.7-37.7-48.1-47.2-65.3-1-1.81-1.96-3.56-2.91-5.22l18.2-18.1 8.94-8.95c11.1-11.1 11.4-28.8.721-39.5l-53.6-54.3c-10.7-10.7-28.4-10.4-39.5.74l-15.2 15.2.414.411c-5.08 6.48-9.32 14-12.5 22-2.86 7.8-4.67 15.1-5.5 22.4-7.1 59.1 19.8 113 92.8 186 101 101 182 93.2 186 92.9 7.64-.913 15-2.74 22.4-5.63 7.99-3.12 15.5-7.36 21.9-12.4l.331.294 15.3-15c12-11 12-29 1-40z" fill="#76bd3f"/></svg>