<svg xmlns="http://www.w3.org/2000/svg" width="512" height="512" viewBox="0 0 512 512"><path d="M226.611 231.988c-6.506 4.597-8.047 13.59-3.441 20.065 4.606 6.507 22.491 20.567 28.982 15.985 6.48-4.583-.846-26.12-5.452-32.609-4.597-6.523-13.598-8.056-20.089-3.441zm-146.65 84.3c6.162 8.195 17.814 9.837 26.002 3.692 8.195-6.164 25.688-29.733 19.519-37.929-6.154-8.195-33.649 2.064-41.845 8.242-8.188 6.147-9.846 17.814-3.676 25.995zm-11.84-85.24c-7.554 1.582-12.41 8.947-10.87 16.501 1.564 7.539 8.938 12.386 16.485 10.837 7.546-1.547 26.987-11.917 25.454-19.472-1.571-7.537-23.507-9.414-31.069-7.866zm91.495 88.273c-6.307-3.308-19.77 9.828-24.64 17.236h27.652c1.085-7.558.811-15.228-3.012-17.236z"/><path d="M476.274 232.504c-12.051-16.719-31.546-26.698-52.152-26.698-5.799 0-11.559.847-17.137 2.393 6.841-17.823 24.535-33.729 32.964-39.679 7.218-5.083 8.978-15.046 3.91-22.287-5.052-7.242-15.046-8.993-22.303-3.941-1.845 1.287-35.661 25.465-46.237 59.646-11.787-6.594-25.468-9.487-38.895-8.231-2.525-2.808-5.18-5.504-8.036-7.998-25.243-21.99-44.309-50.236-55.147-81.688-7.929-23.006-29.599-38.475-53.927-38.475-.857 0-1.698.174-2.552.212-7.209-18.884-18.002-32.667-32.583-40.548-23.398-12.637-46.35-5.287-48.883-4.395-8.36 2.894-12.786 12.012-9.885 20.379 2.901 8.352 12.027 12.794 20.379 9.869.102-.016 11.98-3.707 23.171 2.331 7.449 4.03 13.378 11.668 17.737 22.718-20.271 14.241-29.802 40.515-21.334 65.085 10.831 31.437 13.216 65.438 6.881 98.298-.6 3.12-.899 6.275-1.179 9.429l-74.825-99.532a29.244 29.244 0 0 0-21.646-11.636l-1.767-.063c-7.906 0-15.593 3.269-21.099 8.946C1.448 198.539-5.98 276.567 32.08 336.558h40.198c-2.585-2.847-5.143-5.733-7.488-8.852-35.8-47.609-32.375-112.922 7.789-156.496l124.296 165.348h96.742c-5.851-14.842-7.973-30.929-5.376-47.092 3.801-23.664 16.586-44.434 36.003-58.494 5.529-4.004 12.066-6.131 18.886-6.131a32.491 32.491 0 0 1 23.906 10.526c5.701 6.209 12.207 9.947 19.339 11.104.749.12 1.507.09 2.26.151.103.002.195.052.297.052.064 0 .132-.018.196-.019 6.329.415 12.769-1.093 19.174-4.658 13.975-7.836 32.719-3.597 41.994 9.243 14.013 19.441 19.636 43.183 15.835 66.831-1.042 6.482-2.926 12.593-5.213 18.486h5.15c9.496 0 18.587 2.543 26.553 7.059 2.242-6.562 3.997-13.379 5.134-20.446 5.162-32.094-2.47-64.297-21.481-90.666zm-219.658 51.878a122.595 122.595 0 0 0-.565 34.936c-22.877-3.509-42.353-19.403-50.07-41.787a62.154 62.154 0 0 1-2.283-31.968c7.39-38.365 4.606-78.06-8.055-114.814-4.488-13.028 2.463-27.308 15.515-31.796a24.74 24.74 0 0 1 8.156-1.376c10.659 0 20.168 6.788 23.656 16.923 12.113 35.144 33.233 66.689 60.838 91.852-25.376 19.036-42.142 46.631-47.192 78.03z"/><path d="M353.451 322.059c4.427-7.021 10.872-29.84 3.865-34.267-7.015-4.411-24.837 11.229-29.264 18.236-4.418 7.007-2.322 16.296 4.684 20.707 7.015 4.427 16.299 2.33 20.715-4.676zm64.479 14.499c4.392-3.56 6.653-9.402 5.199-15.234-2.002-8.038-14.021-28.496-22.067-26.494s-9.071 25.697-7.077 33.752c.839 3.361 2.91 5.987 5.448 7.977h18.497zm48.139 32.031H31.203a21.888 21.888 0 0 0-19.3 11.574 21.903 21.903 0 0 0 1.134 22.491l33.595 50.095a60.08 60.08 0 0 0 49.908 26.62h305.365a60.095 60.095 0 0 0 50.447-27.45l32.087-49.563c4.355-6.725 4.675-15.297.852-22.35a21.882 21.882 0 0 0-19.222-11.417z"/></svg>