<svg xmlns="http://www.w3.org/2000/svg" width="55" height="55" viewBox="0 0 55 55"><path d="M39 17.3c.3-4.3-.7-8.1-3-10.7-2.9-3.3-7.4-4.1-12.4-2l1.5 3.7c2.3-1 5.6-1.6 7.8.9 2.6 3 3.3 10-1.2 18.6-.6-.2-1.3-.5-2.3-.8-4.6-1.6-13.1-4.6-14-9-.3-1.7.5-3.6 2.4-5.8 1.2 2.9 3.4 5.6 7.3 7.4l1.7-3.6C20 12.8 20.2 5.9 20.3 1.3V-.1h-4v1.3c0 1.8-.1 4 .3 6.5-3.9 3.7-5.7 7.2-5.2 10.6C4.9 20.1.2 23.2.2 27.4c0 4.6 1.3 27.7 27.1 27.7s27.1-23 27.1-27.7c.2-5.1-6.6-8.5-15.4-10.1zM13.2 22c3.2 4.5 10.4 7 15.1 8.7 1.3.4 2.8 1 3.1 1.2l1.8 1.6 1.2-2.1c2-3.4 3.3-6.9 4-10.1 7.6 1.4 12.1 4.1 12.1 6.1 0 2.9-9 7.1-23.1 7.1-14.1 0-23.1-4.2-23.1-7.1.1-1.7 3.3-3.9 8.9-5.4zm14.3 29.1c-15.7 0-20.8-9.8-22.4-17.2 5.1 3 13.8 4.6 22.4 4.6 8.6 0 17.2-1.6 22.4-4.6-1.6 7.4-6.7 17.2-22.4 17.2z"/></svg>