<svg xmlns="http://www.w3.org/2000/svg" width="57" height="46.7" viewBox="0 0 57 46.7"><path d="M46.4 8.5h3.8v-4H34.5C33.6 1.9 31.2 0 28.3 0S23 1.9 22.1 4.5H6.4v4h4.2L0 26.5v.5c0 5.9 4.8 10.8 10.8 10.8S21.5 32.9 21.5 27v-.5l-10.6-18h11.2c.6 2 2.2 3.5 4.2 4.2v30h-8.8v4h22v-4h-9.2v-30c2-.6 3.5-2.2 4.2-4.2h11.6l-10.6 18v.5c0 5.9 4.8 10.8 10.8 10.8S57 32.9 57 27v-.5l-10.6-18zM10.8 33.8c-3 0-5.6-2-6.4-4.8h12.9c-1 2.7-3.5 4.8-6.5 4.8zM5.5 25l5.2-8.9L16 25H5.5zm22.8-15c-1.7 0-3.1-1.2-3.4-2.8V5.8c.3-1.6 1.7-2.8 3.4-2.8 1.9 0 3.5 1.6 3.5 3.5S30.2 10 28.3 10zm18 6.1l5.2 8.9H41l5.3-8.9zm0 17.7c-3 0-5.6-2-6.4-4.8h12.9c-1 2.7-3.5 4.8-6.5 4.8z"/></svg>