<svg id="SvgjsSvg1000" xmlns="http://www.w3.org/2000/svg" version="1.1" xmlns:xlink="http://www.w3.org/1999/xlink" xmlns:svgjs="http://svgjs.com/svgjs" width="227" height="207"><defs id="SvgjsDefs1001"></defs><path id="SvgjsPath1007" d="M1102.23 332.863L1117.51 291.12L1241.93 336.181L1228.17 373.808L1228.17 428.829L1266 324.934L1106.21 267L1082.1000000000001 332.863ZM1190.33 417.545C1190.33 396.761 1173.3899999999999 379.909 1152.5 379.909C1131.61 379.909 1114.67 396.76099999999997 1114.67 417.545C1114.67 438.33000000000004 1131.6100000000001 455.182 1152.5 455.182C1173.39 455.182 1190.33 438.33000000000004 1190.33 417.545ZM1171.42 417.545C1171.42 427.92400000000004 1162.94 436.363 1152.5 436.363C1142.06 436.363 1133.58 427.924 1133.58 417.545C1133.58 407.16700000000003 1142.06 398.72700000000003 1152.5 398.72700000000003C1162.94 398.72700000000003 1171.42 407.16700000000003 1171.42 417.545ZM1086.29 370.5L1057.92 370.5L1057.92 389.318L1086.29 389.318ZM1209.25 351.682L1209.25 474L1039 474L1039 351.682Z " fill="#bcccd9" transform="matrix(1,0,0,1,-1039,-267)"></path></svg>