<?xml version="1.0" encoding="utf-8"?>
<!-- Generator: Adobe Illustrator 19.0.0, SVG Export Plug-In . SVG Version: 6.00 Build 0)  -->
<svg version="1.1" id="Capa_1" xmlns="http://www.w3.org/2000/svg" xmlns:xlink="http://www.w3.org/1999/xlink" x="0px" y="0px"
	 viewBox="-39 39.2 96.8 96.8" style="enable-background:new -39 39.2 96.8 96.8;" xml:space="preserve">
<g>
	<g>
		<path d="M23.6,39.2H0.5c-10.3,0-17.4,2.3-23.8,7.6c-5,4.3-8.1,10.7-8.1,16.9c0,9.6,7.3,19.8,20.9,19.8c1.3,0,2.8-0.1,4-0.3
			l-0.2,0.5c-0.5,1.3-1.1,2.5-1.1,4.5c0,3.8,1.8,6.1,3.6,8.3l0.2,0.3l-0.4,0c-5.6,0.4-16,1.1-23.7,5.8c-9,5.4-9.7,13.1-9.7,15.4
			c0,9,8.4,18.1,27.1,18.1c21.8,0,33.1-12,33.1-23.9c0-8.8-5.1-13.1-10.6-17.7l-4.6-3.6c-1.4-1.2-3.2-2.6-3.2-5.4
			c0-2.7,1.8-4.4,3.3-6l0.2-0.2c5-3.9,10.6-8.4,10.6-18c0-9.7-6-14.6-8.9-17H17c0.1,0,0.2,0,0.3-0.1l6.6-4.2
			c0.2-0.1,0.3-0.3,0.2-0.6C24,39.3,23.8,39.2,23.6,39.2z M-4.4,130.7c-13.3,0-22.2-6.2-22.2-15.4c0-6,3.6-10.4,10.8-13
			c5.7-1.9,13.2-2,13.2-2c1.3,0,1.9,0,2.9,0.1c9.3,6.6,13.7,10.1,13.7,16.7C14.1,125.5,7,130.7-4.4,130.7z M-4.5,79.9
			c-11.1,0-15.8-14.6-15.8-22.5c0-4,0.9-7,2.8-9.4c2-2.5,5.5-4.2,8.8-4.2c10.2,0,15.9,13.7,15.9,23.2c0,1.5,0,6.1-3.1,9.2
			C1.9,78.5-1.5,79.9-4.5,79.9z"/>
		<path d="M56,84.4H43.8V72.3c0-0.3-0.2-0.5-0.5-0.5h-5.2c-0.3,0-0.5,0.2-0.5,0.5v12.1H25.5c-0.3,0-0.5,0.2-0.5,0.5v5.3
			c0,0.3,0.2,0.5,0.5,0.5h12.1v12.2c0,0.3,0.2,0.5,0.5,0.5h5.2c0.3,0,0.5-0.2,0.5-0.5V90.7H56c0.3,0,0.5-0.2,0.5-0.5v-5.3
			C56.5,84.6,56.3,84.4,56,84.4z"/>
	</g>
</g>
</svg>
