<?xml version="1.0" encoding="iso-8859-1"?>
<!-- Generator: Adobe Illustrator 16.0.0, SVG Export Plug-In . SVG Version: 6.00 Build 0)  -->
<!DOCTYPE svg PUBLIC "-//W3C//DTD SVG 1.1//EN" "http://www.w3.org/Graphics/SVG/1.1/DTD/svg11.dtd">
<svg version="1.1" id="Capa_1" xmlns="http://www.w3.org/2000/svg" xmlns:xlink="http://www.w3.org/1999/xlink" x="0px" y="0px"
	 width="612px" height="612px" viewBox="0 0 612 612" style="enable-background:new 0 0 612 612;" xml:space="preserve" fill="#fafafa">
<g>
	<g id="Clock">
		<g>
			<path d="M444.193,276.387h-108.58V148.064c0-16.366-13.247-29.613-29.613-29.613s-29.613,13.247-29.613,29.613v187.549h167.806
				c16.347,0,29.613-13.247,29.613-29.613S460.54,276.387,444.193,276.387z M306,0C137.009,0,0,137.009,0,306s137.009,306,306,306
				s306-137.009,306-306S474.991,0,306,0z M306,552.774C169.919,552.774,59.226,442.081,59.226,306S169.919,59.226,306,59.226
				S552.774,169.919,552.774,306S442.081,552.774,306,552.774z"/>
		</g>
	</g>
</g>
<g>
</g>
<g>
</g>
<g>
</g>
<g>
</g>
<g>
</g>
<g>
</g>
<g>
</g>
<g>
</g>
<g>
</g>
<g>
</g>
<g>
</g>
<g>
</g>
<g>
</g>
<g>
</g>
<g>
</g>
</svg>
